<?xml version="1.0" encoding="utf-8"?>
<!-- Generator: Adobe Illustrator 14.0.0, SVG Export Plug-In . SVG Version: 6.00 Build 43363)  -->
<!DOCTYPE svg PUBLIC "-//W3C//DTD SVG 1.1//EN" "http://www.w3.org/Graphics/SVG/1.1/DTD/svg11.dtd">
<svg version="1.1" id="Layer_1" xmlns="http://www.w3.org/2000/svg" xmlns:xlink="http://www.w3.org/1999/xlink" x="0px" y="0px"
	 width="60px" height="54.436px" viewBox="0 0 60 54.436" enable-background="new 0 0 60 54.436" xml:space="preserve">
<path fill="#F0F2F2" d="M21.034,45.705c-2.406,0-4.359,1.952-4.359,4.365c0,2.411,1.953,4.365,4.359,4.365
	c2.411,0,4.36-1.954,4.36-4.365C25.395,47.657,23.445,45.705,21.034,45.705"/>
<path fill="#F0F2F2" d="M39.271,45.705c-2.41,0-4.368,1.952-4.368,4.365c0,2.411,1.958,4.365,4.368,4.365
	c2.406,0,4.36-1.954,4.36-4.365C43.631,47.657,41.677,45.705,39.271,45.705"/>
<polygon fill="#F0F2F2" points="47.358,1.725 46.105,11.105 0,11.105 8.649,34.38 43.099,34.38 42.453,39.143 10.517,39.143 
	10.517,43.681 46.984,43.681 48.876,24.252 50.726,11.105 50.596,11.105 51.188,5.47 60,5.47 60,0 "/>
</svg>
