<?xml version="1.0" encoding="utf-8"?>
<!-- Generator: Adobe Illustrator 14.0.0, SVG Export Plug-In . SVG Version: 6.00 Build 43363)  -->
<!DOCTYPE svg PUBLIC "-//W3C//DTD SVG 1.1//EN" "http://www.w3.org/Graphics/SVG/1.1/DTD/svg11.dtd">
<svg version="1.1" id="Isolation_Mode" xmlns="http://www.w3.org/2000/svg" xmlns:xlink="http://www.w3.org/1999/xlink" x="0px"
	 y="0px" width="21.233px" height="25.281px" viewBox="0 0 21.233 25.281" enable-background="new 0 0 21.233 25.281"
	 xml:space="preserve">
<path fill="#F4773F" d="M20.095,0.81c-1.499-0.985-3.915,0.039-5.394,2.29c-1.106,1.684-1.371,3.572-0.813,4.832l-3.422,5.213
	L6.74,6.886c0.651-1.168,0.557-2.919-0.367-4.472C5.562,1.052,4.316,0.185,3.121,0l2.082,3.5c0.122,0.198,0.056,0.454-0.14,0.57
	C4.866,4.187,4.612,4.123,4.494,3.925L2.16,0.007c-0.15,0.031-0.301,0.07-0.447,0.126l2.462,4.136
	c0.024,0.038,0.033,0.079,0.045,0.12c0.035,0.172-0.031,0.352-0.19,0.446C3.874,4.931,3.68,4.903,3.549,4.788
	C3.518,4.759,3.487,4.731,3.464,4.693L1.001,0.559c-0.129,0.108-0.246,0.23-0.35,0.363l2.394,4.019
	C3.162,5.138,3.098,5.394,2.9,5.509C2.704,5.626,2.45,5.563,2.334,5.366L0.197,1.778c-0.387,1.135-0.21,2.621,0.589,3.963
	c0.925,1.554,2.419,2.47,3.758,2.452l4.363,7.325l-5.113,7.785c-0.387,0.588-0.222,1.381,0.366,1.769
	c0.591,0.386,1.38,0.222,1.769-0.366l4.433-6.747l3.974,6.679c0.36,0.608,1.145,0.805,1.751,0.443
	c0.605-0.36,0.807-1.144,0.443-1.75l-4.611-7.746l4.105-6.252c1.38,0.015,3.007-0.981,4.113-2.664
	C21.616,4.419,21.595,1.795,20.095,0.81"/>
</svg>
