<?xml version="1.0" encoding="utf-8"?>
<!-- Generator: Adobe Illustrator 14.0.0, SVG Export Plug-In . SVG Version: 6.00 Build 43363)  -->
<!DOCTYPE svg PUBLIC "-//W3C//DTD SVG 1.1//EN" "http://www.w3.org/Graphics/SVG/1.1/DTD/svg11.dtd">
<svg version="1.1" id="Isolation_Mode" xmlns="http://www.w3.org/2000/svg" xmlns:xlink="http://www.w3.org/1999/xlink" x="0px"
	 y="0px" width="19.072px" height="19.072px" viewBox="0 0 19.072 19.072" enable-background="new 0 0 19.072 19.072"
	 xml:space="preserve">
<path fill="#F4773F" d="M0,19.072h19.072V0H0V19.072z M4.861,17.981H0.677v-4.187h4.184V17.981z M4.861,13.334H0.677V9.148h4.184
	V13.334z M4.861,8.689H0.677V4.502h4.184V8.689z M9.369,17.981H5.187v-4.187h4.182V17.981z M9.369,13.334H5.187V9.148h4.182V13.334z
	 M9.369,8.689H5.187V4.502h4.182V8.689z M13.879,17.981H9.693v-4.187h4.186V17.981z M13.879,13.334H9.693V9.148h4.186V13.334z
	 M13.879,8.689H9.693V4.502h4.186V8.689z M18.347,17.968H14.16v-4.187h4.187V17.968z M18.347,13.321H14.16V9.134h4.187V13.321z
	 M18.347,8.672H14.16V4.487h4.187V8.672z"/>
</svg>
