<?xml version="1.0" encoding="utf-8"?>
<!-- Generator: Adobe Illustrator 14.0.0, SVG Export Plug-In . SVG Version: 6.00 Build 43363)  -->
<!DOCTYPE svg PUBLIC "-//W3C//DTD SVG 1.1//EN" "http://www.w3.org/Graphics/SVG/1.1/DTD/svg11.dtd">
<svg version="1.1" id="Isolation_Mode" xmlns="http://www.w3.org/2000/svg" xmlns:xlink="http://www.w3.org/1999/xlink" x="0px"
	 y="0px" width="15.49px" height="29.891px" viewBox="0 0 15.49 29.891" enable-background="new 0 0 15.49 29.891"
	 xml:space="preserve">
<path fill="#F4773F" d="M7.853,7.948c2.196,0,3.974-1.777,3.974-3.974C11.827,1.778,10.049,0,7.853,0S3.878,1.778,3.878,3.974
	C3.878,6.171,5.657,7.948,7.853,7.948"/>
<path fill="#F4773F" d="M15.49,19.728l-2.953-8.644c-0.039-0.183-0.097-0.347-0.172-0.495l-0.005-0.024v0.004
	c-0.597-1.171-2.19-1.194-4.07-1.194H7.212c-1.887,0-3.485,0.023-4.075,1.207l-0.009-0.017l-0.03,0.093
	c-0.05,0.109-0.087,0.224-0.12,0.35L0,19.728h1.565l1.953-3.299l1.817,13.462h4.021l2.464-13.718l2.104,3.555H15.49z"/>
</svg>
