<?xml version="1.0" encoding="utf-8"?>
<!-- Generator: Adobe Illustrator 14.0.0, SVG Export Plug-In . SVG Version: 6.00 Build 43363)  -->
<!DOCTYPE svg PUBLIC "-//W3C//DTD SVG 1.1//EN" "http://www.w3.org/Graphics/SVG/1.1/DTD/svg11.dtd">
<svg version="1.1" id="Isolation_Mode" xmlns="http://www.w3.org/2000/svg" xmlns:xlink="http://www.w3.org/1999/xlink" x="0px"
	 y="0px" width="15.642px" height="25.528px" viewBox="0 0 15.642 25.528" enable-background="new 0 0 15.642 25.528"
	 xml:space="preserve">
<path fill="#F4773F" d="M4.801,18.703c0.581,0.618,1.301,1.01,2.164,1.18v-5.87c-0.096-0.036-0.222-0.079-0.379-0.125
	c-0.16-0.048-0.334-0.091-0.521-0.129c-0.692-0.185-1.375-0.405-2.049-0.658c-0.674-0.254-1.279-0.591-1.811-1.012
	c-0.535-0.422-0.959-0.944-1.279-1.572C0.607,9.89,0.449,9.109,0.449,8.171c0-0.954,0.183-1.797,0.549-2.527
	c0.363-0.729,0.845-1.343,1.445-1.839c0.599-0.495,1.292-0.88,2.079-1.15c0.783-0.272,1.601-0.436,2.443-0.492V0h1.656v2.163
	c0.843,0.092,1.634,0.276,2.372,0.546c0.741,0.273,1.39,0.648,1.952,1.124c0.562,0.478,1.021,1.073,1.376,1.784
	c0.356,0.711,0.561,1.554,0.618,2.527h-3.986c-0.02-0.749-0.254-1.386-0.704-1.91C9.801,5.71,9.257,5.449,8.621,5.449v4.969
	c0.225,0.057,0.454,0.114,0.688,0.169c0.234,0.056,0.482,0.122,0.743,0.197c1.387,0.375,2.454,0.838,3.204,1.391
	c0.747,0.551,1.299,1.126,1.655,1.726c0.356,0.6,0.566,1.198,0.633,1.797c0.065,0.6,0.098,1.134,0.098,1.599
	c0,0.413-0.102,0.934-0.31,1.56c-0.205,0.627-0.576,1.24-1.108,1.84c-0.535,0.598-1.25,1.133-2.149,1.601
	c-0.899,0.469-2.05,0.75-3.454,0.844v2.387H6.965v-2.387c-2.098-0.151-3.736-0.797-4.916-1.938C0.871,20.06,0.186,18.386,0,16.175
	h3.96C3.941,17.243,4.221,18.085,4.801,18.703 M6.039,5.588c-0.301,0.094-0.573,0.24-0.815,0.436
	C4.98,6.221,4.788,6.464,4.649,6.753C4.507,7.044,4.437,7.385,4.437,7.779c0,0.618,0.195,1.095,0.588,1.431
	c0.394,0.337,1.04,0.61,1.94,0.816V5.449C6.646,5.449,6.338,5.495,6.039,5.588 M9.674,19.645c0.365-0.123,0.692-0.296,0.982-0.521
	c0.291-0.225,0.531-0.501,0.717-0.829c0.187-0.327,0.28-0.713,0.28-1.165c0-0.73-0.229-1.277-0.687-1.643
	c-0.459-0.365-1.241-0.697-2.345-0.997v5.392C8.958,19.845,9.309,19.764,9.674,19.645"/>
</svg>
