<?xml version="1.0" encoding="utf-8"?>
<!-- Generator: Adobe Illustrator 14.0.0, SVG Export Plug-In . SVG Version: 6.00 Build 43363)  -->
<!DOCTYPE svg PUBLIC "-//W3C//DTD SVG 1.1//EN" "http://www.w3.org/Graphics/SVG/1.1/DTD/svg11.dtd">
<svg version="1.1" id="Layer_1" xmlns="http://www.w3.org/2000/svg" xmlns:xlink="http://www.w3.org/1999/xlink" x="0px" y="0px"
	 width="16.97px" height="21.599px" viewBox="0 0 16.97 21.599" enable-background="new 0 0 16.97 21.599" xml:space="preserve">
<g>
	<path fill="#F2773D" d="M7.713,0.771C7.713,0.35,7.364,0,6.943,0C6.52,0,6.171,0.35,6.171,0.771v5.014
		c0,0.422-0.35,0.771-0.771,0.771s-0.771-0.35-0.771-0.771V0.771C4.628,0.35,4.279,0,3.857,0S3.085,0.35,3.085,0.771v5.014
		c0,0.422-0.35,0.771-0.771,0.771s-0.771-0.35-0.771-0.771V0.771C1.542,0.35,1.193,0,0.771,0C0.35,0,0,0.35,0,0.771v7.714
		c0,0.977,0.626,1.856,1.542,2.182v9.389c0,0.844,0.699,1.543,1.543,1.543h1.543c0.844,0,1.543-0.699,1.543-1.543v-9.389
		c0.916-0.325,1.542-1.205,1.542-2.182V0.771z M16.97,0.771C16.97,0.35,16.621,0,16.199,0h-3.085c-2.121,0-3.857,1.735-3.857,3.857
		v9.642c0,0.205,0.181,0.386,0.386,0.386h2.7v6.171c0,0.844,0.699,1.543,1.543,1.543h1.542c0.844,0,1.543-0.699,1.543-1.543V0.771z"
		/>
</g>
</svg>
