<?xml version="1.0" encoding="utf-8"?>
<!-- Generator: Adobe Illustrator 14.0.0, SVG Export Plug-In . SVG Version: 6.00 Build 43363)  -->
<!DOCTYPE svg PUBLIC "-//W3C//DTD SVG 1.1//EN" "http://www.w3.org/Graphics/SVG/1.1/DTD/svg11.dtd">
<svg version="1.1" id="Isolation_Mode" xmlns="http://www.w3.org/2000/svg" xmlns:xlink="http://www.w3.org/1999/xlink" x="0px"
	 y="0px" width="20.88px" height="25.724px" viewBox="0 0 20.88 25.724" enable-background="new 0 0 20.88 25.724"
	 xml:space="preserve">
<path fill="#F4773F" d="M0.744,4.168c-0.495,0.096-0.821,0.574-0.728,1.07l3.761,19.744c0.096,0.497,0.572,0.821,1.069,0.725
	c0.497-0.094,0.821-0.572,0.727-1.068L1.811,4.895C1.717,4.4,1.239,4.074,0.744,4.168"/>
<path fill="#F4773F" d="M20.694,0c0,0-0.348,2.801-2.154,3.842c-3.445,1.982-3.294-1.791-9.667-1.201
	C4.97,3.004,3.098,4.678,3.098,4.678l1.877,9.859c0,0,1.086-5.976,8.364-5.648C22.728,9.314,20.694,0,20.694,0"/>
</svg>
