<?xml version="1.0" encoding="utf-8"?>
<!-- Generator: Adobe Illustrator 14.0.0, SVG Export Plug-In . SVG Version: 6.00 Build 43363)  -->
<!DOCTYPE svg PUBLIC "-//W3C//DTD SVG 1.1//EN" "http://www.w3.org/Graphics/SVG/1.1/DTD/svg11.dtd">
<svg version="1.1" id="Isolation_Mode" xmlns="http://www.w3.org/2000/svg" xmlns:xlink="http://www.w3.org/1999/xlink" x="0px"
	 y="0px" width="21.01px" height="22.096px" viewBox="0 0 21.01 22.096" enable-background="new 0 0 21.01 22.096"
	 xml:space="preserve">
<path fill="#F4773F" d="M20.653,16.982c0,0,0.266-0.594,0.266-0.625c0,0-0.489-11.994-10.416-11.994
	C0.575,4.363,0.09,16.357,0.09,16.357c0,0.025,0.328,0.687,0.328,0.687S0,17.635,0,17.689c0,2.391,5.286,4.406,10.505,4.406
	c5.22,0,10.505-2.015,10.505-4.406C21.01,17.641,20.653,16.982,20.653,16.982 M10.504,20.105c-5.082,0-8.708-1.555-9.56-3.221
	c1.599,1.59,5.275,2.703,9.56,2.703c4.28,0,7.953-1.111,9.554-2.699C19.204,18.553,15.58,20.105,10.504,20.105"/>
<path fill="#F4773F" d="M10.504,4.092c1.13,0,2.047-0.916,2.047-2.045C12.551,0.916,11.634,0,10.504,0S8.457,0.916,8.457,2.047
	C8.457,3.176,9.374,4.092,10.504,4.092 M10.504,0.832c0.669,0,1.214,0.545,1.214,1.215c0,0.668-0.545,1.211-1.214,1.211
	S9.291,2.715,9.291,2.047C9.291,1.377,9.835,0.832,10.504,0.832"/>
</svg>
