<?xml version="1.0" encoding="utf-8"?>
<!-- Generator: Adobe Illustrator 14.0.0, SVG Export Plug-In . SVG Version: 6.00 Build 43363)  -->
<!DOCTYPE svg PUBLIC "-//W3C//DTD SVG 1.1//EN" "http://www.w3.org/Graphics/SVG/1.1/DTD/svg11.dtd">
<svg version="1.1" id="Isolation_Mode" xmlns="http://www.w3.org/2000/svg" xmlns:xlink="http://www.w3.org/1999/xlink" x="0px"
	 y="0px" width="22.125px" height="22.125px" viewBox="0 0 22.125 22.125" enable-background="new 0 0 22.125 22.125"
	 xml:space="preserve">
<path fill="#F4773F" d="M11.044,2.323c-4.819,0-8.739,3.922-8.739,8.74c0,4.818,3.92,8.74,8.739,8.74c4.82,0,8.741-3.922,8.741-8.74
	C19.786,6.245,15.864,2.323,11.044,2.323 M9.107,11.016c-0.293-2.598,1.611-7.482,1.611-7.482s1.56,4.703,1.219,7.336
	c1.919,1.871,3.773,6.097,3.773,6.097S8.574,13.383,9.107,11.016"/>
<path fill="#F4773F" d="M11.063,0C4.963,0,0,4.963,0,11.063c0,6.099,4.963,11.062,11.063,11.062c6.099,0,11.062-4.963,11.062-11.062
	C22.125,4.963,17.162,0,11.063,0 M11.044,20.504c-5.204,0-9.439-4.236-9.439-9.441s4.235-9.442,9.439-9.442
	c5.207,0,9.441,4.237,9.441,9.442S16.251,20.504,11.044,20.504"/>
</svg>
